<svg xmlns="http://www.w3.org/2000/svg" width="28" height="28" fill="none" viewBox="0 0 28 28"><path fill="#202020" d="M0 2.625c0-.483.392-.875.875-.875H3.5c.402 0 .751.273.849.663l.71 2.837h20.316a.875.875 0 0 1 .86 1.036l-2.625 14a.875.875 0 0 1-.86.714H7a.875.875 0 0 1-.86-.714L3.52 6.312 2.817 3.5H.875A.875.875 0 0 1 0 2.625M5.43 7l2.296 12.25h14.298L24.32 7zm3.32 14a3.5 3.5 0 1 0 0 7 3.5 3.5 0 0 0 0-7M21 21a3.5 3.5 0 1 0 0 7 3.5 3.5 0 0 0 0-7M8.75 22.75a1.75 1.75 0 1 1 0 3.5 1.75 1.75 0 0 1 0-3.5m12.25 0a1.75 1.75 0 1 1 0 3.5 1.75 1.75 0 0 1 0-3.5"/></svg>